<svg xmlns="http://www.w3.org/2000/svg" viewBox="0 0 152.407 108" width="152.407" height="108">
  <g fill="none">
    <rect fill="#ff5f00" x="60.4117" y="25.6968" width="31.5" height="56.6064"/>
    <path d="M63.0766,54a35.9375,35.9375,0,0,1,13.7499-28.3032,36,36,0,1,0,0,56.6064A35.9375,35.9375,0,0,1,63.0766,54Z" fill="#eb001b"/>
    <path d="M134.0766,54a36,36,0,0,1-58.2499,28.3032,36.0048,36.0048,0,0,0,0-56.6064A36,36,0,0,1,134.0766,54Z" fill="#f79e1b"/>
    <path d="M130.2121,76.1084v-1.1589h.4673v-.2361h-1.1824v.2361h.4675v1.1589Zm2.3105,0v-1.3950h-.3593l-.4142.9598-.4142-.9598h-.3593v1.3950h.2540v-1.0543l.3867.8951h.2632l.3867-.8975v1.0567Z" fill="#f79e1b"/>
  </g>
</svg>
